# xmcd
# 
# Track frame offsets:
#     150
#     21595
#     42154
#     57572
#     71083
#     85271
#     101940
#     117208
#     134027
#     149497
#     171281
#     184905
#     204157
#     230716
#     249533
# 
# Disc length: 3589
# 
# Revision: 0
# Processed by: cddbd v1.5.2PL0 Copyright (c) Steve Scherf et al.
# Submitted via: fre:ac v1.0.31
# 
DISCID=ec0e030f
DTITLE=The Beki Brindle Blues Band with special guests John Sebastian, Chris White, Vivienne Boucherat and Pete Levin - All Kinds Of Beki
DYEAR=2016
DGENRE=Blues
TTITLE0=Young Women's Blues
TTITLE1=Possessive Emotion
TTITLE2=New Shoelaces
TTITLE3=No Return Blues
TTITLE4=I Don't Want My Baby Back
TTITLE5=Floating Bridge
TTITLE6=Nothing To Wear
TTITLE7=Johnny Never
TTITLE8=It Ain't Right
TTITLE9=Darling Be Home Soon
TTITLE10=Its Over
TTITLE11=Could I Be The Woman (And You Be The Man)
TTITLE12=Unforgiven
TTITLE13=Diving Duck Blues
TTITLE14=God's Guitar
EXTD=
EXTT0=
EXTT1=
EXTT2=
EXTT3=
EXTT4=
EXTT5=
EXTT6=
EXTT7=
EXTT8=
EXTT9=
EXTT10=
EXTT11=
EXTT12=
EXTT13=
EXTT14=
PLAYORDER=
